<svg width="6" height="6" viewBox="0 0 6 6" fill="none" xmlns="http://www.w3.org/2000/svg">
<path fill-rule="evenodd" clip-rule="evenodd" d="M1.99051 0.785263L4.87462 0.785263C4.92562 0.785263 4.97452 0.80552 5.01058 0.841579C5.04664 0.877637 5.0669 0.926543 5.0669 0.977537V3.86165C5.0669 3.96784 4.98081 4.05393 4.87462 4.05393C4.76843 4.05393 4.68235 3.96784 4.68235 3.86165V1.44173L1.16509 4.95898C1.09001 5.03407 0.968264 5.03407 0.893177 4.95898C0.818089 4.88389 0.818089 4.76215 0.893177 4.68707L4.41043 1.16981L1.99051 1.16981C1.88432 1.16981 1.79823 1.08373 1.79823 0.977537C1.79823 0.871347 1.88432 0.785263 1.99051 0.785263Z" fill="white"/>
</svg>
