<svg width="8" height="7" viewBox="0 0 8 7" fill="none" xmlns="http://www.w3.org/2000/svg">
<g clip-path="url(#clip0_1_113)">
<path d="M2.3968 4.92148L2.39947 4.91855M2.3968 1.72212L2.39947 1.71918" stroke="#161618" stroke-width="0.39992" stroke-linecap="round" stroke-linejoin="round"/>
<path d="M1.33147 2.62603V0.81306C1.33147 0.770633 1.34832 0.729945 1.37832 0.699945C1.40832 0.669945 1.44901 0.653091 1.49143 0.653091H6.50377C6.5462 0.653091 6.58689 0.669945 6.61689 0.699945C6.64689 0.729945 6.66374 0.770633 6.66374 0.81306V2.62603C6.66374 2.66846 6.64689 2.70915 6.61689 2.73915C6.58689 2.76915 6.5462 2.786 6.50377 2.786H1.49143C1.44901 2.786 1.40832 2.76915 1.37832 2.73915C1.34832 2.70915 1.33147 2.66846 1.33147 2.62603ZM1.33147 5.8254V4.01242C1.33147 3.97 1.34832 3.92931 1.37832 3.89931C1.40832 3.86931 1.44901 3.85245 1.49143 3.85245H6.50377C6.5462 3.85245 6.58689 3.86931 6.61689 3.89931C6.64689 3.92931 6.66374 3.97 6.66374 4.01242V5.8254C6.66374 5.8464 6.6596 5.8672 6.65156 5.88661C6.64352 5.90602 6.63174 5.92366 6.61689 5.93851C6.60203 5.95336 6.5844 5.96515 6.56499 5.97319C6.54558 5.98123 6.52478 5.98536 6.50377 5.98536H1.49143C1.47043 5.98536 1.44963 5.98123 1.43022 5.97319C1.41081 5.96515 1.39317 5.95336 1.37832 5.93851C1.36347 5.92366 1.35168 5.90602 1.34364 5.88661C1.3356 5.8672 1.33147 5.8464 1.33147 5.8254Z" stroke="#161618" stroke-width="0.39992"/>
</g>
<defs>
<clipPath id="clip0_1_113">
<rect width="6.39873" height="6.39873" fill="white" transform="translate(0.797455 0.119797)"/>
</clipPath>
</defs>
</svg>
