<svg width="26" height="26" viewBox="0 0 26 26" fill="none" xmlns="http://www.w3.org/2000/svg">
<path d="M3.72007 6.68825C3.72007 4.82878 3.72007 3.89904 4.25957 3.32138C4.79908 2.74371 5.6674 2.74371 7.40404 2.74371C9.14069 2.74371 10.009 2.74371 10.5485 3.32138C11.088 3.89904 11.088 4.82878 11.088 6.68825V8.57657C11.088 9.9723 11.088 10.6702 10.7353 10.9663C10.6377 11.0482 10.5256 11.1082 10.4059 11.1426C9.973 11.2671 9.45158 10.8484 8.40877 10.0109C7.97496 9.66259 7.75807 9.48841 7.51155 9.45738C7.44012 9.44839 7.36796 9.44839 7.29653 9.45738C7.05001 9.48841 6.83312 9.66259 6.39932 10.0109C5.3565 10.8484 4.83508 11.2671 4.4022 11.1426C4.28243 11.1082 4.17039 11.0482 4.07279 10.9663C3.72007 10.6702 3.72007 9.9723 3.72007 8.57657V6.68825Z" stroke="#CB6686" stroke-width="1.57885" stroke-linecap="round" stroke-linejoin="round"/>
<path d="M14.2457 2.74371H14.5327C17.9654 2.74371 19.6817 2.74371 20.8736 3.58349C21.2151 3.8241 21.5183 4.10944 21.7739 4.43086C22.6662 5.55266 22.6662 7.16802 22.6662 10.3987V13.078C22.6662 16.1969 22.6662 17.7563 22.1727 19.0018C21.3791 21.0042 19.701 22.5836 17.5735 23.3304C16.2502 23.795 14.5933 23.795 11.2794 23.795C9.38575 23.795 8.43894 23.795 7.68274 23.5295C6.46703 23.1028 5.50811 22.2002 5.05467 21.0561C4.77263 20.3444 4.77263 19.4533 4.77263 17.671V14.3219" stroke="#CB6686" stroke-width="1.57885" stroke-linecap="round" stroke-linejoin="round"/>
<path d="M22.6662 13.2693C22.6662 15.207 21.0954 16.7779 19.1577 16.7779C18.4569 16.7779 17.6307 16.6551 16.9493 16.8376C16.344 16.9998 15.8711 17.4728 15.7089 18.0781C15.5264 18.7595 15.6491 19.5857 15.6491 20.2865C15.6491 22.2241 14.0782 23.795 12.1406 23.795" stroke="#CB6686" stroke-width="1.57885" stroke-linecap="round" stroke-linejoin="round"/>
</svg>
