<svg width="19" height="19" viewBox="0 0 19 19" fill="none" xmlns="http://www.w3.org/2000/svg">
<rect x="0.802261" y="0.651917" width="17.9157" height="17.9157" rx="8.95787" fill="#CB6686"/>
<rect x="0.802261" y="0.651917" width="17.9157" height="17.9157" rx="8.95787" fill="url(#paint0_linear_1_520)" fill-opacity="0.15"/>
<path d="M5.09293 12.9287V8.87787H5.93202V12.1879H8.14838V12.9287H5.09293Z" fill="white"/>
<path d="M8.38198 14.1728C8.31253 14.1728 8.24502 14.169 8.17944 14.1613C8.11771 14.1574 8.06563 14.1516 8.02319 14.1439V13.461C8.10035 13.4765 8.19294 13.4842 8.30096 13.4842C8.5903 13.4842 8.79091 13.3472 8.90279 13.0733L8.94909 12.9576L7.77436 9.91371H8.64817L9.40046 11.968L10.2511 9.91371H11.1076L9.71874 13.1717C9.61457 13.4148 9.50077 13.6096 9.37731 13.7562C9.25386 13.9028 9.11112 14.0089 8.94909 14.0745C8.79091 14.14 8.60188 14.1728 8.38198 14.1728Z" fill="white"/>
<path d="M12.9408 12.975C12.6052 12.975 12.3506 12.8997 12.177 12.7493C12.0072 12.5949 11.9223 12.3712 11.9223 12.078V10.5734H11.3032V9.91371H11.9223V9.14406L12.7151 8.96467V9.91371H13.5774V10.5734H12.7151V11.916C12.7151 12.0548 12.746 12.1551 12.8077 12.2169C12.8695 12.2747 12.9775 12.3037 13.1318 12.3037C13.209 12.3037 13.2784 12.2998 13.3401 12.2921C13.4057 12.2805 13.4771 12.2612 13.5542 12.2342V12.8881C13.4732 12.9152 13.371 12.9364 13.2475 12.9518C13.1279 12.9672 13.0257 12.975 12.9408 12.975Z" fill="white"/>
<path d="M15.4058 12.9865C15.1049 12.9865 14.831 12.9171 14.5841 12.7782C14.3411 12.6393 14.1482 12.4522 14.0054 12.2169C13.8627 11.9815 13.7913 11.7173 13.7913 11.4241C13.7913 11.1309 13.8588 10.8666 13.9939 10.6313C14.1327 10.396 14.3198 10.2088 14.5552 10.07C14.7905 9.93107 15.0528 9.86163 15.3422 9.86163C15.6315 9.86163 15.8881 9.933 16.1118 10.0757C16.3356 10.2185 16.5111 10.4114 16.6384 10.6544C16.7696 10.8975 16.8352 11.1733 16.8352 11.4819V11.6903H14.6015C14.6362 11.8099 14.6921 11.9179 14.7693 12.0143C14.8503 12.1108 14.9487 12.186 15.0644 12.24C15.184 12.294 15.3113 12.321 15.4464 12.321C15.5814 12.321 15.7048 12.2998 15.8167 12.2574C15.9324 12.2149 16.0308 12.1551 16.1118 12.078L16.6327 12.5525C16.4475 12.703 16.2565 12.8129 16.0598 12.8824C15.8669 12.9518 15.6489 12.9865 15.4058 12.9865ZM14.5899 11.1232H16.054C16.027 11.0036 15.9768 10.8994 15.9035 10.8107C15.8341 10.7181 15.7492 10.6467 15.6489 10.5966C15.5524 10.5425 15.4444 10.5155 15.3248 10.5155C15.2014 10.5155 15.0895 10.5406 14.9892 10.5908C14.8889 10.6409 14.804 10.7123 14.7346 10.8049C14.669 10.8936 14.6208 10.9997 14.5899 11.1232Z" fill="white"/>
<path d="M3.12962 12.686C2.59675 11.6773 2.10766 9.563 4.41421 9.17476C4.35712 8.31837 4.67114 6.60558 6.38393 6.60558C6.81213 4.80715 9.52404 4.26476 10.8086 6.60558C13.492 5.54936 14.8565 7.59899 14.8337 8.8322C15.338 8.87026 16.3866 9.06057 16.5465 9.51732" stroke="white" stroke-width="0.685116"/>
<defs>
<linearGradient id="paint0_linear_1_520" x1="9.76013" y1="0.651917" x2="9.76013" y2="18.5676" gradientUnits="userSpaceOnUse">
<stop stop-color="white"/>
<stop offset="1" stop-color="white" stop-opacity="0"/>
</linearGradient>
</defs>
</svg>
