<svg width="27" height="26" viewBox="0 0 27 26" fill="none" xmlns="http://www.w3.org/2000/svg">
<path d="M6.04832 8.00653L4.76544 8.86177C3.84581 9.47487 3.38598 9.78142 3.13679 10.2489C2.8876 10.7164 2.88945 11.2659 2.89313 12.3648C2.89758 13.6877 2.90988 15.0358 2.94393 16.3998C3.0247 19.636 3.0651 21.2541 4.25492 22.4439C5.44473 23.6338 7.08469 23.6748 10.3646 23.7568C12.4051 23.8077 14.4275 23.8077 16.4679 23.7568C19.7479 23.6748 21.3878 23.6338 22.5776 22.4439C23.7674 21.2541 23.8079 19.636 23.8886 16.3998C23.9227 15.0358 23.9349 13.6877 23.9394 12.3648C23.9431 11.2659 23.9449 10.7164 23.6958 10.2489C23.4465 9.78142 22.9867 9.47487 22.067 8.86177L20.7842 8.00653" stroke="#CB6686" stroke-width="1.57885" stroke-linejoin="round"/>
<path d="M2.89026 11.1642L10.1666 15.5301C11.7497 16.4799 12.5412 16.9548 13.4159 16.9548C14.2906 16.9548 15.0821 16.4799 16.6652 15.5301L23.9415 11.1642" stroke="#CB6686" stroke-width="1.57885" stroke-linejoin="round"/>
<path d="M6.04795 13.2693V6.95397C6.04795 4.96923 6.04795 3.97687 6.66453 3.36029C7.28111 2.74371 8.27348 2.74371 10.2582 2.74371H16.5736C18.5583 2.74371 19.5507 2.74371 20.1673 3.36029C20.7839 3.97687 20.7839 4.96923 20.7839 6.95397V13.2693" stroke="#CB6686" stroke-width="1.57885"/>
<path d="M11.3108 11.1642H15.521M11.3108 6.95398H15.521" stroke="#CB6686" stroke-width="1.57885" stroke-linecap="round" stroke-linejoin="round"/>
</svg>
