<svg width="26" height="26" viewBox="0 0 26 26" fill="none" xmlns="http://www.w3.org/2000/svg">
<path d="M7.90213 13.2693H14.2175M7.90213 9.05908H11.0598" stroke="#CB6686" stroke-width="1.57885" stroke-linecap="round" stroke-linejoin="round"/>
<path d="M8.9547 21.6899C10.0603 22.6053 11.3909 23.1885 12.916 23.2885C14.1177 23.3673 15.3723 23.3672 16.5716 23.2885C16.9845 23.2614 17.4347 23.1642 17.8223 23.0066C18.2536 22.8314 18.4693 22.7437 18.579 22.757C18.6886 22.7702 18.8476 22.886 19.1657 23.1175C19.7265 23.5255 20.433 23.8187 21.4807 23.7935C22.0105 23.7808 22.2754 23.7744 22.3939 23.5749C22.5126 23.3753 22.3649 23.0991 22.0694 22.5468C21.6598 21.7806 21.4002 20.9035 21.7936 20.2007C22.471 19.1969 23.0463 18.0081 23.1304 16.7242C23.1756 16.0343 23.1756 15.3199 23.1304 14.63C23.0744 13.7745 22.8667 12.9613 22.534 12.2168" stroke="#CB6686" stroke-width="1.57885" stroke-linecap="round" stroke-linejoin="round"/>
<path d="M13.0019 19.0446C16.7444 18.7981 19.7255 15.8028 19.9708 12.0425C20.0188 11.3067 20.0188 10.5446 19.9708 9.80878C19.7255 6.04849 16.7444 3.05324 13.0019 2.80677C11.7252 2.72269 10.3921 2.72286 9.11797 2.80677C5.37552 3.05324 2.39447 6.04849 2.14917 9.80878C2.10118 10.5446 2.10118 11.3067 2.14917 12.0425C2.23851 13.4121 2.84988 14.6802 3.56963 15.7509C3.98754 16.5005 3.71173 17.4361 3.27645 18.2533C2.96259 18.8425 2.80567 19.1371 2.93167 19.35C3.05766 19.5628 3.33912 19.5696 3.90202 19.5832C5.01522 19.61 5.76586 19.2973 6.36172 18.8621C6.69966 18.6152 6.86864 18.4917 6.98509 18.4776C7.10155 18.4634 7.33073 18.5569 7.78903 18.7439C8.20093 18.912 8.67919 19.0157 9.11797 19.0446C10.3921 19.1285 11.7252 19.1286 13.0019 19.0446Z" stroke="#CB6686" stroke-width="1.57885" stroke-linejoin="round"/>
</svg>
