<svg width="15" height="15" viewBox="0 0 15 15" fill="none" xmlns="http://www.w3.org/2000/svg">
<g filter="url(#filter0_b_640_1343)">
<rect x="1.00027" y="1.47876" width="12.5075" height="12.2623" rx="6.13113" fill="#0D121F"/>
<rect x="0.732038" y="1.21052" width="13.044" height="12.7987" rx="6.39936" stroke="#E0E2E6" stroke-width="0.536474"/>
<path fill-rule="evenodd" clip-rule="evenodd" d="M5.28159 7.6103C5.28159 7.93327 5.30025 8.24491 5.33367 8.54413H2.88903C2.82488 8.24291 2.79112 7.93045 2.79112 7.61009C2.79112 7.28974 2.82488 6.97727 2.88903 6.67605H5.33372C5.30026 6.9754 5.28159 7.2872 5.28159 7.6103ZM5.42673 6.05336H3.07016C3.6115 4.59912 4.8894 3.50337 6.45035 3.21959C6.3803 3.36197 6.30722 3.51636 6.23328 3.67254C6.20303 3.73647 6.17248 3.801 6.14209 3.86483C5.86597 4.44468 5.58917 5.1856 5.42673 6.05336ZM6.06111 6.05336H8.44579C8.29286 5.29742 8.04802 4.64793 7.80259 4.13254C7.76573 4.05509 7.72887 3.9768 7.69234 3.89921C7.55788 3.61361 7.42782 3.33749 7.3181 3.14791C7.29668 3.14761 7.27522 3.14746 7.25375 3.14746C7.23208 3.14746 7.21041 3.14761 7.18883 3.14793C7.07907 3.3375 6.94909 3.6136 6.81459 3.8992C6.77806 3.9768 6.74119 4.05509 6.70429 4.13254C6.45886 4.64793 6.21405 5.29742 6.06111 6.05336ZM8.5463 6.67605H5.96061C5.92457 6.97449 5.90428 7.28637 5.90428 7.6103C5.90428 7.9341 5.92456 8.24582 5.96056 8.54413H8.54634C8.58233 8.24582 8.60263 7.9341 8.60263 7.6103C8.60263 7.28637 8.58233 6.97449 8.5463 6.67605ZM9.08015 6.05336C8.91771 5.1856 8.64095 4.44468 8.3648 3.86483C8.33441 3.801 8.30403 3.73676 8.27376 3.67284C8.19979 3.51657 8.12656 3.36192 8.05649 3.21946C9.61774 3.50305 10.8959 4.59892 11.4373 6.05336H9.08015ZM11.6185 6.67605H9.17318C9.20664 6.9754 9.22532 7.2872 9.22532 7.6103C9.22532 7.93327 9.20664 8.24491 9.17322 8.54413H11.6185C11.6826 8.24291 11.7164 7.93045 11.7164 7.61009C11.7164 7.28974 11.6826 6.97727 11.6185 6.67605ZM6.06103 9.16682H8.44588C8.29294 9.92294 8.04806 10.5726 7.80259 11.0881C7.7661 11.1647 7.72966 11.2421 7.6935 11.3189C7.55858 11.6053 7.42815 11.8822 7.3181 12.0723C7.29668 12.0726 7.27522 12.0727 7.25375 12.0727C7.23208 12.0727 7.21041 12.0726 7.18879 12.0723C7.07878 11.8822 6.9483 11.6052 6.81343 11.3188C6.77727 11.2421 6.74078 11.1647 6.70429 11.0881C6.45882 10.5726 6.21396 9.92294 6.06103 9.16682ZM9.08023 9.16682H11.4373C10.8959 10.6212 9.61778 11.7171 8.05661 12.0007C8.12714 11.8574 8.20074 11.7019 8.27522 11.5446C8.30498 11.4817 8.33491 11.4186 8.3648 11.3558C8.64099 10.7758 8.91779 10.0348 9.08023 9.16682ZM3.07016 9.16682H5.42665C5.58909 10.0348 5.86592 10.7758 6.14209 11.3558C6.17199 11.4186 6.20191 11.4817 6.23169 11.5446C6.30611 11.7018 6.37972 11.8573 6.45023 12.0006C4.88933 11.7167 3.61149 10.621 3.07016 9.16682Z" fill="white"/>
</g>
<defs>
<filter id="filter0_b_640_1343" x="-0.968425" y="-0.489849" width="16.4449" height="16.1997" filterUnits="userSpaceOnUse" color-interpolation-filters="sRGB">
<feFlood flood-opacity="0" result="BackgroundImageFix"/>
<feGaussianBlur in="BackgroundImageFix" stdDeviation="0.716116"/>
<feComposite in2="SourceAlpha" operator="in" result="effect1_backgroundBlur_640_1343"/>
<feBlend mode="normal" in="SourceGraphic" in2="effect1_backgroundBlur_640_1343" result="shape"/>
</filter>
</defs>
</svg>
